<?xml version="1.0" encoding="utf-8"?>
<!-- Generator: Adobe Illustrator 16.0.3, SVG Export Plug-In . SVG Version: 6.00 Build 0)  -->
<!DOCTYPE svg PUBLIC "-//W3C//DTD SVG 1.1//EN" "http://www.w3.org/Graphics/SVG/1.1/DTD/svg11.dtd">
<svg version="1.1"
     id="svg10" xmlns:dc="http://purl.org/dc/elements/1.1/" xmlns:cc="http://creativecommons.org/ns#"
     xmlns:rdf="http://www.w3.org/1999/02/22-rdf-syntax-ns#" xmlns:svg="http://www.w3.org/2000/svg"
     xmlns:sodipodi="http://sodipodi.sourceforge.net/DTD/sodipodi-0.dtd"
     xmlns:inkscape="http://www.inkscape.org/namespaces/inkscape" inkscape:version="1.0 (4035a4fb49, 2020-05-01)"
     sodipodi:docname="TYPE AND FACE.svg"
     xmlns="http://www.w3.org/2000/svg" xmlns:xlink="http://www.w3.org/1999/xlink" x="0px" y="0px" width="348.996px"
     height="334.844px" viewBox="-116.798 255.878 348.996 334.844"
     style="enable-background:new -116.798 255.878 348.996 334.844;"
     xml:space="preserve">
<sodipodi:namedview id="namedview12" inkscape:cx="141.36294" inkscape:cy="189.31613" inkscape:zoom="0.8562621"
                    showgrid="false" guidetolerance="10" gridtolerance="10" objecttolerance="10" borderopacity="1"
                    bordercolor="#666666" pagecolor="#ffffff" inkscape:window-x="1686" inkscape:current-layer="g18"
                    inkscape:pageshadow="2" inkscape:pageopacity="0" inkscape:window-maximized="1"
                    inkscape:window-height="1027" inkscape:window-y="1072" inkscape:window-width="1920">
	</sodipodi:namedview>
    <g id="g18" inkscape:label="Image" inkscape:groupmode="layer">
	<path class="logo-path" id="path22" d="M-102.267,590.356c-8.228-1.389-12.793-5.019-14.108-11.218c-0.771-3.636-1.259-3.354,5.786-3.354
		c4.993,0,6.196,0.097,6.196,0.498c0,0.888,1.548,2.493,3.07,3.185c1.323,0.602,2.524,0.676,10.963,0.682
		c8.786,0.007,9.563-0.045,10.651-0.709c2.041-1.245,2.033-3.549-0.016-4.651c-0.99-0.532-2.805-0.659-12.458-0.87
		c-12.179-0.265-14.073-0.519-17.912-2.398c-3.817-1.869-5.636-4.953-5.889-9.986c-0.376-7.478,3.008-11.7,11.111-13.864
		c2.348-0.628,4.302-0.794,11.13-0.949c14.274-0.323,20.114,1.012,24.303,5.556c1.988,2.157,2.921,4.281,3.202,7.288l0.223,2.389
		l-6.158-0.101c-6.034-0.099-6.161-0.116-6.273-0.902c-0.16-1.126-2.327-2.918-4.109-3.398c-0.958-0.258-4.545-0.362-9.938-0.288
		c-7.237,0.099-8.605,0.206-9.617,0.759c-1.274,0.697-1.771,1.902-1.398,3.39c0.463,1.842,1.844,2.074,14.06,2.362
		c9.813,0.231,11.432,0.354,13.797,1.045c5.037,1.473,7.425,3.191,9.059,6.525c0.868,1.771,1.016,2.521,1.016,5.17
		c0.001,4.236-0.83,6.531-3.241,8.94c-2.302,2.3-5.193,3.696-9.487,4.583c-2.771,0.571-4.838,0.676-12.782,0.644
		C-96.301,590.66-101.331,590.514-102.267,590.356L-102.267,590.356z M99.542,590.139c-7.038-1.465-11.002-5.398-12.81-12.714
		c-0.884-3.573-0.889-13.886-0.01-17.496c1.858-7.629,6.003-11.389,14.096-12.782c4.605-0.794,19.683-0.561,23.293,0.359
		c6.693,1.706,10.277,5.553,11.915,12.787c0.852,3.764,0.881,12.997,0.054,16.767c-1.664,7.576-5.656,11.564-13.104,13.093
		C119.179,590.932,103.31,590.922,99.542,590.139L99.542,590.139z M115.609,578.974c3.273-2.214,4.403-6.408,2.655-9.855
		c-1.026-2.024-6.139-10.511-6.712-11.141c-0.365-0.402-1.146,0.669-4.188,5.749c-3.037,5.071-3.771,6.575-3.909,8.015
		c-0.222,2.303,0.415,4.153,2.054,5.969c1.717,1.901,2.972,2.417,5.93,2.434C113.577,580.156,114.06,580.022,115.609,578.974
		L115.609,578.974z M194.675,590.205c-5.375-1.032-9.276-3.152-11.358-6.175c-1.332-1.933-1.874-3.495-2.195-6.332l-0.217-1.914
		h6.247c5.922,0,6.248,0.037,6.248,0.701c0,1.023,1.88,2.736,3.554,3.238c2.24,0.671,19.047,0.596,20.695-0.093
		c2.374-0.992,2.616-3.66,0.439-4.834c-1.02-0.55-2.71-0.667-12.479-0.866c-9.953-0.203-11.643-0.323-14.184-1.011
		c-7.252-1.964-9.946-5.642-9.617-13.132c0.127-2.885,0.324-3.835,1.119-5.377c1.699-3.296,4.625-5.285,9.938-6.759
		c2.686-0.744,3.69-0.805,13.473-0.805c9.722,0,10.799,0.063,13.412,0.789c5.361,1.489,8.575,3.683,10.266,7.007
		c0.85,1.67,1.654,4.781,1.654,6.396v0.894h-6.196c-6.052,0-6.196-0.018-6.196-0.766c0-1.098-2.157-3.101-3.845-3.568
		c-1.904-0.529-16.472-0.53-18.57-0.002c-2.115,0.532-2.813,1.348-2.668,3.115c0.101,1.23,0.295,1.49,1.573,2.115
		c1.31,0.64,2.586,0.736,12.575,0.953c10.354,0.226,11.32,0.304,14.076,1.134c6.383,1.922,9.313,5.173,9.73,10.796
		c0.527,7.102-3.351,11.897-11.414,14.114C217.563,590.698,198.673,590.973,194.675,590.205L194.675,590.205z M-67.465,589.544
		c0.105-0.251,3.999-9.641,8.651-20.867c4.653-11.227,8.625-20.619,8.827-20.873c0.283-0.356,2.508-0.439,9.685-0.365l9.317,0.098
		l8.402,20.958l8.402,20.959l0.094-21.085l0.094-21.085l17.22,0.177c18.682,0.193,20.004,0.319,24.247,2.327
		c2.404,1.138,5.144,3.729,6.266,5.929c1.961,3.844,2.858,10.84,2.209,17.222c-0.788,7.745-3.27,12.096-8.375,14.683
		c-4.201,2.129-4.261,2.133-30.66,2.283l-24.262,0.138l-1.074-2.846l-1.073-2.846h-11.293h-11.293l-1.065,2.825l-1.066,2.824h-6.722
		C-66.171,589.999-67.614,589.899-67.465,589.544L-67.465,589.544z M19.9,577.607c2.64-1.467,3.098-2.786,3.098-8.93
		c0-4.686-0.069-5.225-0.854-6.594c-1.678-2.928-3.911-3.423-15.456-3.427l-7.928-0.003v10.055v10.055l9.75-0.122
		C18.12,578.521,18.283,578.506,19.9,577.607L19.9,577.607z M-33.316,574.382c0-0.17-1.377-3.983-3.061-8.475
		c-2.955-7.884-3.096-8.169-4.101-8.27c-1.034-0.104-1.057-0.062-4.229,8.043c-1.755,4.481-3.189,8.342-3.189,8.579
		c0,0.317,1.919,0.431,7.29,0.431C-36.597,574.691-33.316,574.552-33.316,574.382L-33.316,574.382z M38.292,589.544
		c-0.096-0.251-0.132-9.805-0.08-21.231l0.095-20.776h17.496c17.267,0,17.531,0.012,20.179,0.843
		c2.156,0.678,3.026,1.187,4.438,2.598c2.23,2.23,2.903,4.337,2.903,9.086c0,3.904-0.685,5.895-2.577,7.486l-1.062,0.894
		l2.127,2.127c2.536,2.536,3.206,4.531,2.84,8.465c-0.604,6.507-3.573,9.684-9.894,10.587
		C70.808,590.185,38.512,590.116,38.292,589.544L38.292,589.544z M71.086,578.73c0.41-0.454,0.633-1.297,0.633-2.398
		c0-3.148,0.181-3.099-11.052-3.099h-9.785v3.099v3.099h9.785C69.854,579.43,70.49,579.387,71.086,578.73z M69.869,563.443
		c0.961-1.188,0.943-3.813-0.033-4.789c-0.69-0.69-1.215-0.729-9.842-0.729h-9.112v3.038c0,1.67,0.12,3.156,0.266,3.303
		c0.146,0.146,4.262,0.215,9.146,0.152C69.122,564.304,69.177,564.298,69.869,563.443L69.869,563.443z M152.576,583.712
		l-0.001-6.287l-8.93-14.882c-4.911-8.186-8.93-14.955-8.93-15.044s2.993-0.117,6.652-0.063l6.651,0.1l5.285,9.555
		c2.907,5.256,5.393,9.562,5.522,9.568c0.131,0.007,2.495-4.047,5.254-9.009c2.759-4.961,5.261-9.308,5.56-9.659
		c0.479-0.562,1.295-0.638,6.866-0.638c3.637,0,6.322,0.144,6.322,0.338c0,0.186-3.937,6.896-8.748,14.911l-8.748,14.573v6.411
		v6.412h-6.378h-6.379V583.712z M41.041,517.38c-0.101-0.1-4.417-0.286-9.592-0.414c-16.902-0.42-37.363-2.113-51.623-4.271
		c-53.166-8.045-83.2-26.16-92.71-55.918c-3.136-9.814-4.134-19.945-3.161-32.114c0.206-2.585,0.463-4.986,0.57-5.336
		c0.185-0.599,2.319-0.642,36.348-0.729c19.884-0.052,35.906-0.196,35.605-0.321s-2.844-0.851-5.65-1.611
		c-22.26-6.037-38.294-14.394-49.063-25.571c-8.398-8.717-13.274-18.122-16.119-31.091c-1.531-6.979-1.859-10.542-1.851-20.047
		c0.007-7.656,0.127-9.606,0.843-13.669c3.996-22.699,16.694-38.648,40.036-50.285c21.186-10.562,50.184-16.658,92.311-19.407
		c14.656-0.957,66.99-0.957,81.646,0c32.454,2.117,55.996,6.027,75.45,12.531c33.723,11.273,52.085,29.675,56.857,56.979
		c1.189,6.808,1.297,22.891,0.183,27.61l-0.193,0.82l-36.351,0.026l-36.352,0.026l6.014,1.586
		c23.099,6.091,41.041,15.74,51.447,27.668c10.451,11.979,15.519,26.286,16.215,45.778c1.455,40.745-21.439,65.665-71.991,78.362
		c-17.015,4.273-41.98,7.558-65.289,8.589c-2.906,0.129-6.022,0.29-6.925,0.359C84.846,517.152,41.231,517.569,41.041,517.38
		L41.041,517.38z M97.355,457.692c17.324-0.785,28.933-2.132,37.825-4.388c13.024-3.304,19.284-8.163,21.682-16.831
		c0.588-2.126,0.634-5.78,0.634-49.86c0-43.984-0.047-47.752-0.633-50.03c-0.959-3.73-2.297-6.023-5.161-8.85
		c-5.224-5.154-14.612-8.503-29.015-10.35c-15.855-2.032-25.643-2.394-64.88-2.394s-49.024,0.361-64.88,2.394
		c-14.402,1.847-23.791,5.195-29.015,10.35c-2.864,2.826-4.202,5.119-5.161,8.85c-0.586,2.278-0.634,6.046-0.634,50.03
		c0,52.51-0.135,49.287,2.271,54.199c1.979,4.042,6.937,7.993,12.97,10.335c10.895,4.23,31.95,6.646,61.121,7.013
		C49.461,458.348,89.446,458.05,97.355,457.692L97.355,457.692z M51.793,428.659c-13.36-2.825-23.172-15.041-23.141-28.813
		c0.009-3.378,1.231-8.47,2.843-11.826c1.779-3.707,25.992-43.508,26.469-43.508c0.334,0,24.138,38.748,25.974,42.281
		c8.901,17.124-1.068,37.972-20.032,41.889C60.482,429.39,55.199,429.379,51.793,428.659L51.793,428.659z"/>
</g>
</svg>
