<?xml version="1.0" encoding="utf-8"?>
<!-- Generator: Adobe Illustrator 16.0.3, SVG Export Plug-In . SVG Version: 6.00 Build 0)  -->
<!DOCTYPE svg PUBLIC "-//W3C//DTD SVG 1.1//EN" "http://www.w3.org/Graphics/SVG/1.1/DTD/svg11.dtd">
<svg version="1.1"
	 id="svg10" xmlns:dc="http://purl.org/dc/elements/1.1/" xmlns:cc="http://creativecommons.org/ns#" xmlns:rdf="http://www.w3.org/1999/02/22-rdf-syntax-ns#" xmlns:svg="http://www.w3.org/2000/svg" xmlns:sodipodi="http://sodipodi.sourceforge.net/DTD/sodipodi-0.dtd" xmlns:inkscape="http://www.inkscape.org/namespaces/inkscape" sodipodi:docname="TYPE and FACE 2.svg" inkscape:version="1.0 (4035a4fb49, 2020-05-01)"
	 xmlns="http://www.w3.org/2000/svg" xmlns:xlink="http://www.w3.org/1999/xlink" x="0px" y="0px" width="608.383px"
	 height="96.104px" viewBox="3.098 124.699 608.383 96.104" style="enable-background:new 3.098 124.699 608.383 96.104;"
	 xml:space="preserve">
<sodipodi:namedview  pagecolor="#ffffff" bordercolor="#666666" borderopacity="1" objecttolerance="10" gridtolerance="10" guidetolerance="10" showgrid="false" inkscape:zoom="1.894057" inkscape:cy="172.8" inkscape:cx="307.20001" id="namedview12" inkscape:pageopacity="0" inkscape:pageshadow="2" inkscape:window-width="1920" inkscape:window-height="1027" inkscape:window-y="1072" inkscape:window-maximized="1" inkscape:current-layer="g18" inkscape:window-x="1686">
	</sodipodi:namedview>
<g id="g18" inkscape:label="Image" inkscape:groupmode="layer">
	<path id="path22" d="M55.589,220.794l-1.774-0.115l-5-0.349l-5-0.349l-4.516-0.645l-4.516-0.645l-3.549-0.795l-3.548-0.794
		l-3.064-0.998l-3.065-0.999l-3.235-1.567l-3.236-1.568l-1.592-1.132l-1.593-1.132l-1.902-1.862l-1.902-1.861l-0.888-1.291
		l-0.888-1.29l-0.813-1.613l-0.813-1.612l-0.71-2.259l-0.71-2.258l-0.177-4.062l-0.177-4.063l0.225-1.499l0.225-1.499l13.104-0.084
		l13.104-0.085l-3.189-0.896l-3.189-0.896l-2.755-1.167l-2.756-1.166l-2.69-1.606l-2.691-1.605l-2.329-2.299l-2.33-2.3l-1.196-2.139
		l-1.196-2.139l-0.793-2.331l-0.793-2.332l-0.372-2.788l-0.372-2.788l0.175-4.032l0.175-4.032l0.71-2.259l0.71-2.258l0.813-1.613
		l0.813-1.612l0.888-1.291l0.888-1.29l1.902-1.861l1.902-1.862l1.593-1.132l1.592-1.133l3.236-1.567l3.235-1.567l3.065-0.999
		l3.064-0.998l3.548-0.795l3.549-0.794l4.516-0.644l4.516-0.643l5-0.422l5-0.422l13.387,0.009l13.388,0.009l4.839,0.408l4.839,0.407
		l4.516,0.646l4.517,0.646l3.678,0.82l3.678,0.819l2.935,0.979l2.935,0.978l2.681,1.241l2.681,1.241l2.158,1.441l2.158,1.441
		l1.65,1.554l1.65,1.555l1.142,1.517l1.142,1.518l1.008,2.133l1.008,2.134l0.51,1.834l0.51,1.833l0.165,4.741l0.165,4.74
		l-0.207,0.824l-0.207,0.824l-13.139,0.015l-13.14,0.015l3.71,1.138l3.709,1.138l2.546,1.101l2.546,1.102l2.37,1.478l2.371,1.478
		l1.796,1.642l1.797,1.643l1.356,1.966l1.355,1.966l0.558,1.129l0.558,1.129l0.629,1.854l0.63,1.854l0.381,2.606l0.381,2.605
		l-0.168,4.412l-0.169,4.412l-0.507,1.833l-0.507,1.834l-1.008,2.134l-1.008,2.133l-1.142,1.518l-1.142,1.517l-1.65,1.555
		l-1.65,1.554l-2.158,1.441l-2.158,1.441l-2.681,1.241l-2.681,1.241l-2.935,0.979l-2.935,0.978l-3.678,0.819l-3.678,0.82
		l-4.517,0.645l-4.516,0.644l-4.194,0.356l-4.193,0.355l-12.259,0.105l-12.258,0.105L55.589,220.794L55.589,220.794z
		 M90.876,198.299l3.511-0.521l1.798-0.522l1.798-0.522l1.466-0.749l1.465-0.749l0.998-1.078l0.998-1.077l0.454-1.129l0.454-1.129
		v-18.065v-18.064l-0.454-1.129l-0.454-1.13l-0.998-1.077l-0.998-1.077l-1.563-0.799l-1.563-0.799l-2.308-0.589l-2.308-0.589
		l-3.71-0.438l-3.709-0.438H66.719H47.686l-3.064,0.417l-3.065,0.416l-2.787,0.65l-2.788,0.651l-1.716,1.029l-1.716,1.03
		l-0.98,1.398l-0.98,1.398L30.5,172.344l-0.088,18.727l0.678,1.4l0.678,1.4l1.023,0.865l1.023,0.865l1.613,0.738l1.613,0.738
		l3.387,0.665l3.387,0.664l3.064,0.288l3.065,0.289l18.71-0.082l18.71-0.082L90.876,198.299z M63.124,187.749l-1.659-0.657
		l-1.416-1.246l-1.417-1.247l-0.837-1.566l-0.837-1.566l-0.399-1.716l-0.399-1.716l0.385-1.994l0.384-1.993l2.193-3.71l2.192-3.71
		l2.792-4.517l2.792-4.516l0.232-0.069l0.233-0.069l4.752,7.834l4.751,7.833l0.49,1.39l0.49,1.39v1.965v1.965l-0.537,1.462
		l-0.537,1.463l-0.712,0.968l-0.712,0.968l-0.926,0.921l-0.926,0.921l-1.616,0.83l-1.615,0.829l-2.742,0.106l-2.742,0.106
		L63.124,187.749z M189.303,200.294l-2.258-0.286l-2.742-0.669l-2.742-0.669l-2.679-1.28l-2.679-1.281l-1.837-1.846l-1.837-1.845
		l-0.86-1.605l-0.86-1.604l-0.492-1.936l-0.492-1.936l-0.1-1.861l-0.1-1.861l7.742-0.006l7.742-0.006l0.208,1.01l0.207,1.01
		l1.066,1.101l1.067,1.1l1.791,0.724l1.791,0.724l11.613,0.002l11.613,0.002l1.543-0.713l1.543-0.712l0.491-1.176l0.491-1.176
		l-0.196-0.895l-0.196-0.894l-0.709-0.646l-0.709-0.646l-1.129-0.337l-1.129-0.338l-11.936-0.171l-11.936-0.172l-2.581-0.346
		l-2.581-0.346l-2.552-0.635l-2.551-0.634l-2.353-1.163l-2.353-1.162l-1.437-1.536l-1.437-1.536l-0.677-1.326l-0.676-1.326
		l-0.482-1.853l-0.482-1.852v-3.091v-3.09l0.495-1.899l0.494-1.898l0.847-1.556l0.847-1.556l1.823-1.739l1.824-1.739l2.003-1.012
		l2.003-1.011l2.929-0.784l2.929-0.784l3.199-0.371l3.199-0.372l10.882,0.16l10.882,0.161l2.742,0.65l2.742,0.651l2.25,0.849
		l2.25,0.849l1.502,0.964l1.502,0.965l1.66,1.755l1.66,1.756l0.935,1.977l0.935,1.977l0.37,2.191l0.37,2.19l-0.104,1.019
		l-0.104,1.018l-7.572-0.002l-7.572-0.002l-0.42-1.212l-0.42-1.213l-0.836-0.874l-0.837-0.873l-1.655-0.747l-1.656-0.746
		l-9.804-0.108l-9.803-0.108l-2.132,0.371l-2.132,0.371l-1.011,0.625l-1.01,0.624l-0.391,0.944l-0.391,0.943l0.208,0.948
		l0.208,0.948l0.709,0.665l0.709,0.664l0.968,0.403l0.968,0.402l12.419,0.229l12.42,0.228l3.75,0.668l3.75,0.669l2.133,0.803
		l2.133,0.803l1.468,0.86l1.468,0.861l1.494,1.493l1.493,1.493l0.905,1.937l0.905,1.937l0.371,2.5l0.371,2.5l-0.355,2.39
		l-0.355,2.389l-0.583,1.486l-0.583,1.485l-1.234,1.689l-1.234,1.69l-1.495,1.224l-1.495,1.224l-2.258,1.077l-2.258,1.077
		l-2.742,0.673l-2.742,0.673l-2.734,0.333l-2.733,0.332l-10.17-0.041l-10.17-0.041L189.303,200.294z M446.085,200.311l-2.258-0.266
		l-2.901-0.843l-2.901-0.843l-1.776-1.004l-1.776-1.004l-2.097-2.123l-2.097-2.123l-1.084-2.24l-1.083-2.239l-0.837-3.08
		l-0.836-3.08v-8.71v-8.71l0.836-3.079l0.837-3.08l1.083-2.224l1.084-2.225l1.613-1.769l1.612-1.77l1.908-1.235l1.907-1.235
		l2.932-0.936l2.931-0.936l3.088-0.386l3.087-0.386l10.945,0.159l10.945,0.159l2.131,0.504l2.132,0.504l2.152,0.811l2.153,0.811
		l1.771,1.175l1.77,1.175l1.464,1.658l1.464,1.658l1.086,2.259l1.087,2.258l0.506,1.774l0.507,1.774l0.484,3.226l0.484,3.226
		l0.003,4.798l0.003,4.798l-0.506,3.428l-0.506,3.429l-0.809,2.42l-0.808,2.419l-1.008,1.774l-1.008,1.774l-1.791,1.783
		l-1.791,1.783l-2.273,1.184l-2.272,1.184l-2.404,0.65l-2.405,0.651l-2.733,0.334l-2.733,0.334l-9.525-0.042l-9.524-0.041
		l-2.259-0.267H446.085z M461.331,186.944l1.653-0.491l1.75-1.6l1.75-1.6l0.757-1.699l0.756-1.7l0.012-2.259l0.012-2.258
		l-0.466-1.129l-0.466-1.129l-4.177-6.936l-4.177-6.937l-0.357-0.379l-0.357-0.379l-4.342,7.153l-4.342,7.153l-0.567,1.613
		l-0.566,1.613l-0.011,1.521l-0.011,1.521l0.52,1.543l0.521,1.544l0.851,1.163l0.851,1.163l1.091,0.917l1.09,0.917l1.651,0.57
		l1.652,0.571l1.635,0.011l1.636,0.01L461.331,186.944L461.331,186.944z M566.25,200.297l-2.419-0.28l-2.698-0.676l-2.699-0.677
		l-1.979-0.894l-1.979-0.894l-1.735-1.312l-1.736-1.312l-0.864-1.071l-0.864-1.071l-0.678-1.129l-0.677-1.129l-0.653-2.258
		l-0.653-2.259l-0.206-1.854l-0.205-1.854l0.265-0.005l0.266-0.004l7.55-0.019l7.55-0.02l0.409,1.188l0.408,1.189l0.892,0.93
		l0.892,0.931l1.795,0.726l1.796,0.725l11.613,0.002l11.613,0.002l1.199-0.425l1.199-0.425l0.816-0.971l0.817-0.971v-1.08v-1.079
		l-0.787-0.936l-0.787-0.937l-1.267-0.379l-1.267-0.38l-8.672-0.005l-8.673-0.005l-4.75-0.323l-4.749-0.323l-3.05-0.627l-3.05-0.628
		l-1.935-0.785l-1.934-0.786l-1.456-1.002l-1.457-1.002l-1.109-1.37l-1.108-1.369l-0.524-1.032l-0.524-1.033l-0.479-2.031
		l-0.479-2.032v-2.742v-2.742l0.478-2.026l0.478-2.026l0.691-1.354l0.691-1.354l1.972-1.972l1.972-1.972l2.419-1.157l2.42-1.158
		l2.589-0.656l2.59-0.655l3.106-0.366l3.106-0.367l10.918,0.153l10.917,0.153l2.231,0.519l2.231,0.519l2.237,0.706l2.237,0.707
		l1.899,1.154l1.899,1.154l1.567,1.525l1.568,1.526l0.988,1.861l0.989,1.861l0.511,1.981l0.511,1.982v1.647v1.646h-7.419h-7.42
		l-0.213,0.018l-0.213,0.018l-0.406-1.183l-0.407-1.184l-0.87-0.908l-0.869-0.907l-1.656-0.75l-1.655-0.749h-10.969h-10.968
		l-1.29,0.442l-1.29,0.442l-0.888,0.827l-0.887,0.828v1.497v1.496l0.726,0.68l0.726,0.68l0.968,0.399l0.968,0.399l12.42,0.233
		l12.42,0.233l3.783,0.672l3.784,0.673l2.544,0.981l2.545,0.981l1.763,1.263l1.763,1.262l0.815,1.069l0.814,1.07l0.813,1.612
		l0.813,1.613l0.396,2.369l0.396,2.37l-0.23,2.146l-0.229,2.146l-0.594,1.907l-0.593,1.908l-1.192,1.729l-1.191,1.73l-1.636,1.303
		l-1.636,1.303l-2.271,1.078l-2.271,1.079l-2.741,0.665l-2.742,0.665l-2.733,0.332l-2.734,0.333l-10.009-0.042l-10.008-0.042
		L566.25,200.297L566.25,200.297z M232.221,198.489l0.51-1.215l3.485-8.388l3.485-8.388l4.118-10l4.118-10l2.387-5.807l2.387-5.807
		l0.691-1.532l0.691-1.532h11.978h11.978l10.629,26.532l10.629,26.533l0.083-26.533l0.083-26.532h19.527h19.527l3.133,0.335
		l3.133,0.335l2.581,0.629l2.58,0.63l2.62,1.288l2.619,1.289l1.979,2.115l1.979,2.114l0.784,1.548l0.784,1.548l0.661,1.96
		l0.66,1.961l0.488,3.011l0.488,3.012v5.161v5.162l-0.495,3.051l-0.494,3.052l-0.771,2.218l-0.771,2.218l-1.057,1.744l-1.057,1.743
		l-1.467,1.436l-1.466,1.437l-1.936,1.159l-1.936,1.16l-2.42,0.757l-2.419,0.757l-2.903,0.441l-2.903,0.441h-29.142h-29.142
		l-1.346-3.549l-1.346-3.548l-14.011-0.084l-14.01-0.085l-0.304,0.305l-0.305,0.305l-1.329,3.328l-1.33,3.328l-8.473,0.086
		l-8.474,0.086L232.221,198.489z M340.729,184.704l1.743-0.464l1.16-0.92l1.16-0.919l0.711-1.436l0.711-1.436l0.378-2.9l0.378-2.901
		l-0.216-3.136l-0.216-3.137l-0.506-1.702l-0.506-1.702l-1.337-1.338l-1.338-1.338l-1.75-0.52l-1.75-0.52h-11.877h-11.877v12.419
		v12.42l11.693-0.004l11.694-0.004L340.729,184.704L340.729,184.704z M275.131,179.45l-0.186-0.564l-3.807-10.162l-3.807-10.161
		h-1.253h-1.253l-1.666,4.193l-1.666,4.193l-2.468,6.291l-2.468,6.29l0.003,0.242l0.003,0.242h9.376h9.377L275.131,179.45
		L275.131,179.45z M365.922,172.776v-26.955h20.412h20.412l2.659,0.333l2.658,0.333l1.982,0.617l1.981,0.617l1.714,1.18l1.714,1.181
		l0.96,1.449l0.96,1.449l0.742,2.146l0.741,2.146l-0.007,4.355l-0.007,4.354l-0.832,1.774l-0.832,1.774l-1.65,1.535l-1.65,1.535
		l1.219,0.77l1.219,0.77l1.432,1.598l1.432,1.598l0.591,1.582l0.59,1.581l0.178,2.438l0.177,2.438l-0.549,2.712l-0.55,2.712
		l-0.842,1.719l-0.841,1.718l-1.364,1.257l-1.363,1.258l-1.562,0.786l-1.562,0.786l-2.259,0.579l-2.258,0.579l-22.823,0.126
		l-22.823,0.126L365.922,172.776L365.922,172.776z M406.236,186.045l1.121-0.385l0.407-0.807l0.406-0.807l0.005-1.88l0.006-1.88
		l-0.943-0.942l-0.943-0.943h-11.96h-11.961h-0.184h-0.184l0.011,3.871l0.012,3.871l0.011,0.161l0.011,0.162l11.532-0.019
		l11.533-0.019L406.236,186.045L406.236,186.045z M405.638,166.249l0.701-0.701l0.209-1.234l0.209-1.235l-0.219-1.244l-0.219-1.244
		l-0.691-0.691l-0.69-0.691h-11.466h-11.467l0.012,3.791l0.011,3.79l0.012,0.173l0.012,0.174l11.443-0.093l11.443-0.093
		L405.638,166.249L405.638,166.249z M510.441,191.703v-7.989l-11.29-18.811l-11.291-18.811v-0.142v-0.142l8.436,0.086l8.435,0.086
		l6.788,12.186l6.788,12.186l0.369-0.411l0.369-0.411l6.381-11.452l6.381-11.452l0.383-0.408l0.384-0.409l8.255,0.087l8.254,0.086
		l-11.255,18.802l-11.256,18.802v8.054v8.054h-8.064h-8.064L510.441,191.703z"/>
</g>
</svg>
