<svg version="1.1"
	 id="svg10" xmlns:dc="http://purl.org/dc/elements/1.1/" xmlns:cc="http://creativecommons.org/ns#" xmlns:rdf="http://www.w3.org/1999/02/22-rdf-syntax-ns#" xmlns:svg="http://www.w3.org/2000/svg" xmlns:sodipodi="http://sodipodi.sourceforge.net/DTD/sodipodi-0.dtd" xmlns:inkscape="http://www.inkscape.org/namespaces/inkscape" sodipodi:docname="LOGOFACE SVG.svg" inkscape:version="1.0 (4035a4fb49, 2020-05-01)"
	 xmlns="http://www.w3.org/2000/svg" xmlns:xlink="http://www.w3.org/1999/xlink" x="0px" y="0px" width="500px" height="375.754px"
	 viewBox="780.5 782.623 500 375.754" enable-background="new 780.5 782.623 500 375.754" xml:space="preserve">
<sodipodi:namedview  pagecolor="#ffffff" bordercolor="#666666" borderopacity="1" objecttolerance="10" gridtolerance="10" guidetolerance="10" showgrid="false" inkscape:zoom="0.35355339" inkscape:cy="736.43158" inkscape:cx="1356.6981" id="namedview12" inkscape:pageopacity="0" inkscape:pageshadow="2" inkscape:window-width="1920" inkscape:window-height="1027" inkscape:window-y="1072" inkscape:window-maximized="1" inkscape:current-layer="g18" inkscape:window-x="1688">
	</sodipodi:namedview>
<g id="g18" inkscape:label="Image" inkscape:groupmode="layer">
	<path id="path22" d="M994.716,1157.92c-104.492-3.332-167.563-22.838-196.075-60.639c-11.961-15.855-17.612-33.15-18.241-55.834
		c-0.245-8.832,0.402-22.295,1.168-24.287c0.222-0.576,8.215-0.688,52.422-0.715l52.162-0.035l-7.303-1.926
		c-4.015-1.057-11.464-3.316-16.551-5.023c-45.029-15.096-69.345-37.74-78.354-72.967c-2.659-10.396-3.379-17.246-3.398-32.324
		c-0.016-12.301,0.106-14.541,1.081-19.973c1.497-8.323,3.145-14.289,5.669-20.507c18.444-45.444,72.74-70.739,168.23-78.373
		c44.939-3.593,105.007-3.593,149.945,0c80.663,6.448,132.107,25.622,156.886,58.472c11.961,15.857,17.611,33.15,18.242,55.834
		c0.243,8.832-0.405,22.295-1.169,24.288c-0.223,0.575-8.215,0.685-52.423,0.714l-52.16,0.036l7.301,1.924
		c4.018,1.059,11.466,3.319,16.553,5.025c45.029,15.096,69.346,37.739,78.354,72.966c2.659,10.396,3.38,17.246,3.398,32.322
		c0.016,12.303-0.105,14.545-1.083,19.975c-2.214,12.328-5.368,21.467-10.579,30.66c-23.584,41.594-81.224,63.697-181.089,69.445
		C1063.37,1158.379,1022.144,1158.797,994.716,1157.92L994.716,1157.92z M1084.052,1072.873
		c37.887-1.537,60.338-5.275,73.672-12.264c5.291-2.773,10.896-8.195,12.949-12.529c3.365-7.111,3.2-3.084,3.2-77.545
		s0.165-70.434-3.2-77.544c-2.053-4.335-7.658-9.758-12.949-12.53c-13.334-6.988-35.785-10.727-73.672-12.264
		c-15.451-0.627-91.652-0.627-107.104,0c-37.888,1.537-60.338,5.275-73.671,12.264c-5.294,2.772-10.896,8.195-12.949,12.53
		c-3.367,7.11-3.201,3.083-3.201,77.544s-0.166,70.434,3.201,77.545c2.053,4.334,7.655,9.756,12.949,12.529
		c13.01,6.818,36.184,10.768,71.724,12.219C989.018,1073.402,1070.228,1073.434,1084.052,1072.873L1084.052,1072.873z
		 M1023.067,1031.268c-15.524-2.803-28.093-14.156-32.786-29.615c-1.182-3.9-1.327-5.143-1.327-11.428
		c0-6.256,0.146-7.529,1.306-11.332c0.718-2.354,1.874-5.402,2.569-6.773c1.859-3.664,37.539-62.16,37.914-62.16
		c0.374,0,36.054,58.498,37.913,62.16c0.695,1.371,1.854,4.42,2.568,6.773c1.161,3.803,1.309,5.076,1.309,11.332
		c0,6.285-0.146,7.527-1.329,11.428C1064.851,1022.582,1044.457,1035.131,1023.067,1031.268z"/>
</g>
</svg>
